# xmcd
#
# Track frame offsets:
#	183
#	13515
#	23610
#	36845
#	50018
#	64485
#	72595
#	81788
#	101098
#	112878
#	123170
#	132863
#	144523
#	158158
#	175658
#	187585
#
# Disc length: 2692
#
# Revision: 1
# Processed by: cddbd v1.5.1PL0 Copyright (c) Steve Scherf et al.
# Submitted via: FreeRIP 2.70 
# Normalized: r0:TDELIM( - ),TSWAP
#
DISCID=d00a8210
DTITLE=Western Brothers And Country Sisters
DYEAR=1993
DGENRE=Country
TTITLE0=Lynn Anderson - Rose Garden
TTITLE1=Willie Nelson - Pride Wins Again
TTITLE2=Alabama - Patches
TTITLE3=Kenny Rogers - Ruby. Don't Take Your Love To Town
TTITLE4=Anne Murray - Both Sides Now
TTITLE5=Roger Miller - Can't Stop Loving You
TTITLE6=Conway Twitty - This Road That I Walk
TTITLE7=Jimmy Dean - Let Me Sing My Song
TTITLE8=Dolly Parton - Macking Believe
TTITLE9=Dave Dudley - Six Days On The Road
TTITLE10=John Anderson - Missisisippi Rainstorm
TTITLE11=Waylon Jennings - Crying
TTITLE12=Freddy Fender - Mean Woman Blues
TTITLE13=The Carter Family - Will The Circle Be Unbroken
TTITLE14=Billy Jo Spears - Look What They've Done To My Song
TTITLE15=Carl Perkins - Red Neck
EXTD=
EXTT0=
EXTT1=
EXTT2=
EXTT3=
EXTT4=
EXTT5=
EXTT6=
EXTT7=
EXTT8=
EXTT9=
EXTT10=
EXTT11=
EXTT12=
EXTT13=
EXTT14=
EXTT15=
PLAYORDER=
